# File created by Blade
# Date/Time:  Wed Jan 21 16:27:40 2015
# Frame Rate: 120.000 fps
#------------------------------------------------------
:FULLY-SPECIFIED
:DEGREES
1237
root 19.224564 12.996614 -16.509006 -174.569673 14.565607 -189.930837
Spine 58.169436 -24.960704 6.048736
Head -0.147808 -19.954871 -7.202501
LeftShoulder 20.512504 -38.639583 1.294071
LeftArm 44.552537 47.377351 -60.659856
LeftForeArm 25.342230 -0.000000 7.215887
LeftHand -4.105172 0.000000 13.001779
LeftHandThumb1 -26.253704 0.000000 33.147579
RightShoulder 4.758117 -11.619078 5.205950
RightArm 43.532405 -13.559122 31.258200
RightForeArm -6.199397 0.000000 32.448213
RightHand -16.853558 -0.000000 -24.737184
RightHandThumb1 -24.326973 -0.000000 -32.862282
LeftUpLeg -0.769788 10.109114 54.987955
LeftLeg 19.860911 -0.000000 -0.000000
LeftFoot 11.468142 45.045591 4.475425
LeftToeBase 26.617899 -0.000000 -0.000000
RightUpLeg -58.700640 -36.221986 -40.363463
RightLeg 10.188298 -0.000000 -0.000000
RightFoot 41.220516 -25.811735 -12.885862
RightToeBase 48.346078 -0.000000 -0.000000
1238
root 19.228749 12.970077 -16.495301 -174.588776 14.461934 -189.900542
Spine 58.238321 -24.896608 5.836282
Head -0.109633 -19.810952 -7.178054
LeftShoulder 20.297712 -38.696173 1.434587
LeftArm 44.439347 47.382637 -60.878977
LeftForeArm 25.767797 -0.000000 7.237486
LeftHand -4.138604 -0.000000 12.372661
LeftHandThumb1 -26.253704 0.000000 33.147579
RightShoulder 4.850278 -11.579854 5.361860
RightArm 43.332454 -13.420787 31.636113
RightForeArm -6.364003 -0.000000 32.498646
RightHand -16.780357 -0.000000 -24.717697
RightHandThumb1 -24.326973 -0.000000 -32.862282
LeftUpLeg -0.829316 10.230631 55.094281
LeftLeg 19.805691 -0.000000 -0.000000
LeftFoot 11.328853 44.974548 4.307357
LeftToeBase 26.814240 -0.000000 -0.000000
RightUpLeg -58.580482 -36.144335 -40.583277
RightLeg 10.287245 -0.000000 -0.000000
RightFoot 41.229807 -25.849209 -12.979648
RightToeBase 48.225255 -0.000000 -0.000000
1239
root 19.230928 12.945696 -16.482333 -174.593198 14.309918 -189.850927
Spine 58.219656 -24.775022 5.857217
Head -0.043700 -20.002076 -7.101322
LeftShoulder 20.223043 -38.586456 1.467501
LeftArm 44.832729 47.426431 -60.678277
LeftForeArm 25.817832 -0.000000 7.132678
LeftHand -4.024898 0.000000 12.180102
LeftHandThumb1 -26.253704 0.000000 33.147579
RightShoulder 4.697508 -11.638475 5.573037
RightArm 43.241080 -13.217758 31.870350
RightForeArm -6.467813 0.000000 32.557757
RightHand -16.707545 -0.000000 -24.669025
RightHandThumb1 -24.326973 -0.000000 -32.862282
LeftUpLeg -0.939573 10.281221 55.203834
LeftLeg 19.750693 -0.000000 -0.000000
LeftFoot 11.255944 44.927639 4.226991
LeftToeBase 26.963999 -0.000000 -0.000000
RightUpLeg -58.385783 -36.086916 -40.840773
RightLeg 10.382002 -0.000000 -0.000000
RightFoot 41.289012 -25.780470 -13.212146
RightToeBase 48.091617 -0.000000 -0.000000
1240
root 19.217420 12.911641 -16.459835 -174.506220 14.063738 -189.998453
Spine 57.934859 -24.690213 5.778666
Head 0.192071 -20.066542 -7.039618
LeftShoulder 20.293007 -38.555987 1.433801
LeftArm 44.906991 47.545122 -60.692684
LeftForeArm 25.889196 -0.000000 7.112764
LeftHand -4.034619 -0.000000 12.180558
LeftHandThumb1 -26.253704 0.000000 33.147579
RightShoulder 4.499301 -11.805727 5.862485
RightArm 43.185262 -13.060209 31.967545
RightForeArm -6.479447 -0.000000 32.602385
RightHand -16.674428 -0.000000 -24.670056
RightHandThumb1 -24.326973 -0.000000 -32.862282
LeftUpLeg -1.309611 10.276594 55.067883
LeftLeg 19.815414 -0.000000 -0.000000
LeftFoot 11.138303 44.953754 4.196451
LeftToeBase 27.250217 -0.000000 -0.000000
RightUpLeg -58.166721 -36.121550 -41.483423
RightLeg 10.559924 -0.000000 -0.000000
RightFoot 41.326767 -25.933177 -13.181983
RightToeBase 47.842263 -0.000000 -0.000000
1241
root 19.231363 12.903906 -16.442771 -174.516510 14.029729 -189.720596
Spine 58.110398 -24.542572 5.907993
Head 0.130060 -20.029834 -7.003050
LeftShoulder 20.098534 -38.406161 1.502118
LeftArm 45.521351 47.575618 -60.200735
LeftForeArm 25.855712 -0.000000 7.092312
LeftHand -4.040988 -0.000000 12.116467
LeftHandThumb1 -26.253704 0.000000 33.147579
RightShoulder 4.514592 -11.759605 5.939756
RightArm 43.110354 -12.963178 32.064410
RightForeArm -6.477800 -0.000000 32.618435
RightHand -16.606392 0.000000 -24.601515
RightHandThumb1 -24.326973 -0.000000 -32.862282
LeftUpLeg -1.229986 10.371078 55.423598
LeftLeg 19.681556 -0.000000 -0.000000
LeftFoot 11.104754 44.888870 4.023151
LeftToeBase 27.435025 -0.000000 -0.000000
RightUpLeg -58.178268 -36.078561 -41.122860
RightLeg 10.555865 -0.000000 -0.000000
RightFoot 41.321558 -25.802593 -13.445498
RightToeBase 47.811849 -0.000000 -0.000000
1242
root 19.235997 12.887718 -16.420980 -174.468535 13.919702 -189.579098
Spine 58.121325 -24.437111 5.978567
Head 0.124935 -19.973007 -6.964073
LeftShoulder 20.127115 -38.725052 1.442142
LeftArm 45.247619 47.803066 -60.425649
LeftForeArm 25.856522 -0.000000 7.166183
LeftHand -4.085048 -0.000000 12.125598
LeftHandThumb1 -26.253704 0.000000 33.147579
RightShoulder 4.437800 -11.364798 6.059808
RightArm 42.890176 -13.276322 32.159585
RightForeArm -6.452794 -0.000000 32.613174
RightHand -16.558306 0.000000 -24.536900
RightHandThumb1 -24.326973 -0.000000 -32.862282
LeftUpLeg -1.317461 10.438689 55.622086
LeftLeg 19.581320 -0.000000 -0.000000
LeftFoot 11.027985 44.905279 3.870005
LeftToeBase 27.749331 -0.000000 -0.000000
RightUpLeg -58.122720 -36.063674 -41.112860
RightLeg 10.628896 -0.000000 -0.000000
RightFoot 41.348350 -25.793591 -13.630842
RightToeBase 47.798529 -0.000000 -0.000000
1243
root 19.235791 12.871838 -16.396183 -174.410148 13.780555 -189.497013
Spine 58.098093 -24.370497 5.950211
Head 0.231469 -19.957971 -6.948050
LeftShoulder 20.004974 -38.696337 1.513663
LeftArm 45.386223 47.834976 -60.329388
LeftForeArm 26.000534 -0.000000 7.220043
LeftHand -4.162428 -0.000000 12.279865
LeftHandThumb1 -26.253704 0.000000 33.147579
RightShoulder 4.450014 -11.380533 6.162042
RightArm 42.873652 -13.308442 32.099999
RightForeArm -6.361167 0.000000 32.600485
RightHand -16.547406 -0.000000 -24.466247
RightHandThumb1 -24.326973 -0.000000 -32.862282
LeftUpLeg -1.473551 10.498696 55.743241
LeftLeg 19.516198 -0.000000 -0.000000
LeftFoot 10.936928 44.899033 3.753986
LeftToeBase 27.985516 -0.000000 -0.000000
RightUpLeg -58.021169 -36.057320 -41.230340
RightLeg 10.697513 -0.000000 -0.000000
RightFoot 41.408581 -25.821426 -13.806294
RightToeBase 48.012587 -0.000000 -0.000000
1244
root 19.230094 12.853258 -16.369427 -174.326475 13.620845 -189.486049
Spine 57.977838 -24.241922 5.976866
Head 0.306303 -19.957109 -6.848337
LeftShoulder 20.063385 -38.782039 1.445430
LeftArm 45.456175 47.999299 -60.262393
LeftForeArm 26.052694 -0.000000 7.229186
LeftHand -4.151627 -0.000000 12.307814
LeftHandThumb1 -26.253704 0.000000 33.147579
RightShoulder 4.347042 -11.299445 6.282558
RightArm 42.772031 -13.425585 32.083675
RightForeArm -6.284833 -0.000000 32.646523
RightHand -16.556812 -0.000000 -24.356996
RightHandThumb1 -24.326973 -0.000000 -32.862282
LeftUpLeg -1.700411 10.548261 55.775336
LeftLeg 19.496503 -0.000000 -0.000000
LeftFoot 10.914844 44.868178 3.784667
LeftToeBase 28.063804 -0.000000 -0.000000
RightUpLeg -57.903958 -36.045171 -41.507039
RightLeg 10.812817 -0.000000 -0.000000
RightFoot 41.285859 -25.999266 -13.791348
RightToeBase 47.837911 -0.000000 -0.000000
